<svg xmlns="http://www.w3.org/2000/svg" width="52" height="52" viewBox="0 0 52 52" fill="none"><rect width="52" height="52" rx="26" fill="#FAF5FF"></rect><rect x="0.75" y="0.75" width="50.5" height="50.5" rx="25.25" stroke="#9333EA" stroke-opacity="0.2" stroke-width="1.5"></rect><path d="M14.7037 33H12.8571L18.198 18.4545H20.0162L25.3571 33H23.5105L19.1639 20.7557H19.0502L14.7037 33ZM15.3855 27.3182H22.8287V28.8807H15.3855V27.3182ZM27.6227 33V18.4545H32.5375C33.6738 18.4545 34.6066 18.6487 35.3358 19.0369C36.0649 19.4205 36.6047 19.9484 36.9551 20.6207C37.3055 21.2931 37.4806 22.0578 37.4806 22.9148C37.4806 23.7718 37.3055 24.5317 36.9551 25.1946C36.6047 25.8575 36.0673 26.3783 35.3429 26.7571C34.6184 27.1312 33.6928 27.3182 32.5659 27.3182H28.5886V25.7273H32.5091C33.2856 25.7273 33.9106 25.6136 34.3841 25.3864C34.8623 25.1591 35.2079 24.8371 35.421 24.4205C35.6388 23.9991 35.7477 23.4972 35.7477 22.9148C35.7477 22.3324 35.6388 21.8234 35.421 21.3878C35.2032 20.9522 34.8552 20.616 34.377 20.3793C33.8987 20.1378 33.2666 20.017 32.4806 20.017H29.3841V33H27.6227ZM34.4693 26.4659L38.0488 33H36.0034L32.4806 26.4659H34.4693Z" fill="#9333EA"></path></svg>