<svg width="25" height="24" viewBox="0 0 25 24" fill="none" xmlns="http://www.w3.org/2000/svg">
<g clip-path="url(#clip0_2091_294)">
<path fill-rule="evenodd" clip-rule="evenodd" d="M24.684 12C24.684 18.6276 19.3116 24 12.684 24C6.05636 24 0.68396 18.6276 0.68396 12C0.68396 5.3724 6.05636 0 12.684 0C19.3116 0 24.684 5.3724 24.684 12Z" fill="#FF6154"/>
<path fill-rule="evenodd" clip-rule="evenodd" d="M14.2842 12H10.884V8.4H14.2842C14.7616 8.4 15.2194 8.58964 15.557 8.92721C15.8946 9.26477 16.0842 9.72261 16.0842 10.2C16.0842 10.6774 15.8946 11.1352 15.557 11.4728C15.2194 11.8104 14.7616 12 14.2842 12ZM14.2842 6H8.48401V18H10.884V14.4H14.2842C15.3981 14.4 16.4664 13.9575 17.2541 13.1698C18.0417 12.3822 18.4842 11.3139 18.4842 10.2C18.4842 9.08609 18.0417 8.0178 17.2541 7.23015C16.4664 6.4425 15.3981 6 14.2842 6Z" fill="white"/>
</g>
<defs>
<clipPath id="clip0_2091_294">
<rect width="24" height="24" fill="white" transform="translate(0.68396)"/>
</clipPath>
</defs>
</svg>
