<svg xmlns="http://www.w3.org/2000/svg" width="46" height="46" viewBox="0 0 46 46" fill="none"><g clip-path="url(#clip0_1699_57080)"><mask id="mask0_1699_57080" style="mask-type:luminance" maskUnits="userSpaceOnUse" x="0" y="0" width="46" height="46"><path d="M46 0.383301H0V45.6166H46V0.383301Z" fill="white"></path></mask><g mask="url(#mask0_1699_57080)"><path d="M17.6644 6.89633L21.6664 16.8477L17.2504 27.7941C16.3764 29.9201 14.3064 31.3223 11.9604 31.3223H8.87837C8.69437 31.3223 8.51037 31.1866 8.41837 31.0057L0.0463928 10.3341C-0.0456071 10.1079 0.138393 9.8365 0.414393 9.8365H8.05037C8.23437 9.8365 8.37237 9.92697 8.46437 10.1079L12.1904 20.6925C12.2824 20.8734 12.5584 20.8734 12.6044 20.6925L17.5264 6.89633C17.5264 6.89633 17.6184 6.67017 17.8484 6.67017C18.0784 6.67017 17.8024 6.8511 17.8024 6.8511L17.6644 6.94157" fill="#E0E0E0"></path><path d="M40.5262 3.59448C38.9622 3.59448 37.5822 4.54438 37.0302 5.99185L31.5102 20.6927C31.4182 20.8736 31.1422 20.8736 31.0962 20.6927L27.0942 9.38436C26.4962 7.75596 24.9322 6.67035 23.1842 6.67035H17.8022C17.6642 6.67035 17.6182 6.71558 17.6182 6.71558L17.6642 6.85128L21.6662 16.8479L27.3702 31.0511C27.4162 31.2321 27.6002 31.3225 27.7842 31.3225H30.9122C33.2122 31.3225 35.3282 29.9203 36.2022 27.8396L46.0002 4.00158C46.0922 3.82065 45.9542 3.59448 45.7242 3.59448H40.5262Z" fill="white"></path><path d="M7.31416 42.3145H5.79616L3.91016 36.6151H5.84216L6.62416 39.6457L7.72816 36.6151H9.06216L10.1202 39.6457L10.9482 36.6151H12.8342L10.9022 42.3145H9.43016L8.37216 39.3291L7.31416 42.3145Z" fill="white"></path><path d="M14.8129 42.4045C14.1689 42.4045 13.5709 42.2236 13.1109 41.8165C12.6509 41.4094 12.4209 40.8666 12.4209 40.1881C12.4209 39.5548 12.6509 39.0573 13.0649 38.6049C13.4789 38.1978 14.0309 37.9717 14.7209 37.9717C15.3189 37.9717 15.7789 38.1526 16.1929 38.5597C16.6069 38.9668 16.7909 39.4644 16.7909 40.1429V40.55H14.0769C14.1229 40.7309 14.2609 40.8214 14.4909 40.9118C14.6749 41.0023 14.9509 41.0475 15.1809 41.0475C15.6869 41.0475 16.1469 40.9571 16.5609 40.7309V41.9974C16.1929 42.2688 15.5949 42.4045 14.8129 42.4045ZM14.0769 39.7358H15.1809C15.1809 39.5548 15.1349 39.4191 14.9969 39.2834C14.9049 39.193 14.7669 39.1025 14.6289 39.1025C14.3069 39.1477 14.1229 39.3287 14.0769 39.7358Z" fill="white"></path><path d="M17.3887 42.2693V36.6151H19.1367V38.5601C19.4127 38.1983 19.7807 37.9721 20.2867 37.9721C20.8387 37.9721 21.2527 38.1983 21.6207 38.6054C21.9887 39.0125 22.1727 39.5553 22.1727 40.1885C22.1727 40.8218 21.9887 41.3646 21.6207 41.7717C21.2527 42.1788 20.7927 42.405 20.2867 42.405C19.7807 42.405 19.3667 42.224 19.1367 41.8169V42.2693H17.3887ZM19.1367 39.7362V40.6861C19.2747 40.867 19.4587 41.0027 19.7807 41.0027C20.0107 41.0027 20.1487 40.9123 20.2867 40.7766C20.4247 40.6409 20.4707 40.4599 20.4707 40.2338C20.4707 40.0076 20.4247 39.8267 20.2867 39.691C20.1487 39.5553 20.0107 39.4648 19.7807 39.4648C19.4587 39.4196 19.2287 39.51 19.1367 39.7362Z" fill="white"></path><path d="M25.438 42.3147H23.874L22.126 38.108H23.966L24.702 40.2792L25.438 38.108H27.232L25.438 42.3147Z" fill="white"></path><path d="M29.1648 37.6098C28.9808 37.8359 28.7508 37.9264 28.4748 37.9264C28.1988 37.9264 27.9688 37.8359 27.7848 37.655C27.6008 37.4741 27.5088 37.2479 27.5088 36.9765C27.5088 36.7051 27.6008 36.4789 27.7848 36.298C27.9688 36.1171 28.1988 36.0266 28.4748 36.0266C28.7508 36.0266 28.9808 36.1171 29.1648 36.298C29.3488 36.4789 29.4408 36.7051 29.4408 36.9765C29.4408 37.2027 29.3488 37.4288 29.1648 37.6098ZM29.3488 42.2688H27.6008V38.0621H29.3488V42.2688Z" fill="white"></path><path d="M34.0871 42.2695H30.0391V41.1387L31.6951 39.465H30.0851V38.108H33.9491V39.2841L32.2471 40.9577H34.0871V42.2695Z" fill="white"></path><path d="M36.3406 37.6101C36.1566 37.791 35.9266 37.8815 35.6506 37.8815C35.3746 37.8815 35.1446 37.791 34.9606 37.6101C34.7766 37.4292 34.6846 37.203 34.6846 36.9316C34.6846 36.6602 34.7766 36.434 34.9606 36.2531C35.1446 36.0722 35.3746 35.9817 35.6506 35.9817C35.9266 35.9817 36.1566 36.0722 36.3406 36.2531C36.5246 36.434 36.6166 36.6602 36.6166 36.9316C36.6166 37.203 36.5246 37.4292 36.3406 37.6101ZM36.4786 42.2691H34.7306V38.0624H36.4786V42.2691Z" fill="white"></path><path d="M39.5142 42.4045C38.8242 42.4045 38.2262 42.1784 37.7662 41.7713C37.3062 41.3642 37.0762 40.8214 37.0762 40.1881C37.0762 39.5548 37.3062 39.012 37.7662 38.6049C38.2262 38.1978 38.8242 37.9717 39.5142 37.9717C40.2042 37.9717 40.8022 38.1978 41.2622 38.6049C41.7222 39.012 41.9522 39.5548 41.9522 40.1881C41.9522 40.8214 41.7222 41.3642 41.2622 41.7713C40.8022 42.1784 40.2042 42.4045 39.5142 42.4045ZM38.7782 40.1881C38.7782 40.4143 38.8242 40.5952 38.9622 40.7309C39.1002 40.8666 39.2842 40.9571 39.4682 40.9571C39.6522 40.9571 39.8362 40.8666 39.9742 40.7309C40.1122 40.5952 40.1582 40.4143 40.1582 40.1881C40.1582 39.9619 40.1122 39.781 39.9742 39.6453C39.8362 39.5096 39.6522 39.4191 39.4682 39.4191C39.2842 39.4191 39.1002 39.5096 38.9622 39.6453C38.8702 39.781 38.7782 39.9619 38.7782 40.1881Z" fill="white"></path></g></g><defs><clipPath id="clip0_1699_57080"><rect width="46" height="46" fill="white"></rect></clipPath></defs></svg>