<svg width="115" height="20" viewBox="0 0 115 20" fill="none" xmlns="http://www.w3.org/2000/svg">
<g clip-path="url(#clip0_2182_5336)">
<path d="M14.7025 13.8493C15.3921 15.046 16.074 16.229 16.7554 17.4108C13.7381 19.7208 9.04372 20 5.56858 17.3398C1.56945 14.2761 0.91216 9.04854 3.05323 5.28552C5.51577 0.957231 10.124 3.12924e-06 13.091 0.701901C13.0108 0.876222 11.2338 4.56285 11.2338 4.56285C11.2338 4.56285 11.0933 4.57208 11.0138 4.57362C10.1368 4.61079 9.48362 4.81485 8.78352 5.17682C8.01541 5.57763 7.35716 6.16047 6.86631 6.87441C6.37545 7.58835 6.06694 8.41164 5.96773 9.27234C5.86421 10.1452 5.9849 11.0301 6.31842 11.8433C6.60041 12.5309 6.9993 13.1415 7.53405 13.657C8.35438 14.4486 9.33058 14.9388 10.4621 15.1011C11.5337 15.2549 12.5642 15.1026 13.5299 14.6173C13.8922 14.4356 14.2003 14.2348 14.5605 13.9595C14.6064 13.9298 14.6471 13.8921 14.7025 13.8493Z" fill="#FF3232"/>
<path d="M14.7091 3.3544C14.534 3.18213 14.3718 3.02319 14.2103 2.86323C14.1139 2.76786 14.0211 2.66865 13.9224 2.5756C13.887 2.54201 13.8455 2.49613 13.8455 2.49613C13.8455 2.49613 13.8791 2.42486 13.8934 2.39564C14.0824 2.01649 14.3784 1.73937 14.7296 1.5189C15.118 1.27326 15.5705 1.14828 16.0299 1.15975C16.6177 1.17129 17.1642 1.31767 17.6254 1.71194C17.9659 2.0029 18.1404 2.37205 18.1712 2.81272C18.2225 3.55615 17.9148 4.12552 17.304 4.52286C16.9451 4.75666 16.558 4.93739 16.1698 5.15145C15.9558 5.26963 15.7728 5.37345 15.5636 5.58725C15.3795 5.80182 15.3705 6.00408 15.3705 6.00408L18.1512 6.00049V7.23894H13.8591V7.11922C13.8427 6.51064 13.9137 5.93794 14.1923 5.38524C14.4487 4.87817 14.8471 4.50697 15.3257 4.22114C15.6943 4.00093 16.0824 3.81353 16.4518 3.59435C16.6797 3.45925 16.8407 3.26109 16.8394 2.97372C16.8394 2.7271 16.66 2.50792 16.4036 2.43947C15.7992 2.27643 15.1839 2.53663 14.864 3.08984C14.8173 3.1706 14.7696 3.25083 14.7091 3.3544ZM20.0877 12.5329L17.7444 8.4861H13.1072L10.7487 12.5747H15.42L17.7251 16.6023L20.0877 12.5329Z" fill="#FF3232"/>
</g>
<g clip-path="url(#clip1_2182_5336)">
<mask id="mask0_2182_5336" style="mask-type:luminance" maskUnits="userSpaceOnUse" x="26" y="3" width="15" height="14">
<path d="M40.1093 3.25H26.6093V16.75H40.1093V3.25Z" fill="white"/>
</mask>
<g mask="url(#mask0_2182_5336)">
<path d="M33.3593 4.375L35.0974 7.89625L38.9843 8.46438L36.1718 11.2038L36.8355 15.0738L33.3593 13.2456L29.883 15.0738L30.5468 11.2038L27.7343 8.46438L31.6211 7.89625L33.3593 4.375Z" fill="#FFCE39" stroke="#FFCE39" stroke-width="1.6" stroke-linecap="round" stroke-linejoin="round"/>
</g>
</g>
<g clip-path="url(#clip2_2182_5336)">
<mask id="mask1_2182_5336" style="mask-type:luminance" maskUnits="userSpaceOnUse" x="44" y="3" width="15" height="14">
<path d="M58.1093 3.25H44.6093V16.75H58.1093V3.25Z" fill="white"/>
</mask>
<g mask="url(#mask1_2182_5336)">
<path d="M51.3593 4.375L53.0974 7.89625L56.9843 8.46438L54.1718 11.2038L54.8355 15.0738L51.3593 13.2456L47.883 15.0738L48.5468 11.2038L45.7343 8.46438L49.6211 7.89625L51.3593 4.375Z" fill="#FFCE39" stroke="#FFCE39" stroke-width="1.6" stroke-linecap="round" stroke-linejoin="round"/>
</g>
</g>
<g clip-path="url(#clip3_2182_5336)">
<mask id="mask2_2182_5336" style="mask-type:luminance" maskUnits="userSpaceOnUse" x="62" y="3" width="15" height="14">
<path d="M76.1093 3.25H62.6093V16.75H76.1093V3.25Z" fill="white"/>
</mask>
<g mask="url(#mask2_2182_5336)">
<path d="M69.3593 4.375L71.0974 7.89625L74.9843 8.46438L72.1718 11.2038L72.8355 15.0738L69.3593 13.2456L65.883 15.0738L66.5468 11.2038L63.7343 8.46438L67.6211 7.89625L69.3593 4.375Z" fill="#FFCE39" stroke="#FFCE39" stroke-width="1.6" stroke-linecap="round" stroke-linejoin="round"/>
</g>
</g>
<g clip-path="url(#clip4_2182_5336)">
<mask id="mask3_2182_5336" style="mask-type:luminance" maskUnits="userSpaceOnUse" x="80" y="3" width="15" height="14">
<path d="M94.1093 3.25H80.6093V16.75H94.1093V3.25Z" fill="white"/>
</mask>
<g mask="url(#mask3_2182_5336)">
<path d="M87.3593 4.375L89.0974 7.89625L92.9843 8.46438L90.1718 11.2038L90.8355 15.0738L87.3593 13.2456L83.883 15.0738L84.5468 11.2038L81.7343 8.46438L85.6211 7.89625L87.3593 4.375Z" fill="#FFCE39" stroke="#FFCE39" stroke-width="1.6" stroke-linecap="round" stroke-linejoin="round"/>
</g>
</g>
<g clip-path="url(#clip5_2182_5336)">
<mask id="mask4_2182_5336" style="mask-type:luminance" maskUnits="userSpaceOnUse" x="98" y="3" width="15" height="14">
<path d="M112.109 3.25H98.6093V16.75H112.109V3.25Z" fill="white"/>
</mask>
<g mask="url(#mask4_2182_5336)">
<path d="M105.359 4.375L107.097 7.89625L110.984 8.46438L108.172 11.2038L108.836 15.0738L105.359 13.2456L101.883 15.0738L102.547 11.2038L99.7343 8.46438L103.621 7.89625L105.359 4.375Z" fill="#FFCE39" stroke="#FFCE39" stroke-width="1.6" stroke-linecap="round" stroke-linejoin="round"/>
</g>
</g>
<defs>
<clipPath id="clip0_2182_5336">
<rect width="19.632" height="20" fill="white" transform="translate(0.68396)"/>
</clipPath>
<clipPath id="clip1_2182_5336">
<rect width="14.625" height="13.5" fill="white" transform="translate(26.0034 3.25)"/>
</clipPath>
<clipPath id="clip2_2182_5336">
<rect width="14.625" height="13.5" fill="white" transform="translate(44.0034 3.25)"/>
</clipPath>
<clipPath id="clip3_2182_5336">
<rect width="14.625" height="13.5" fill="white" transform="translate(62.0034 3.25)"/>
</clipPath>
<clipPath id="clip4_2182_5336">
<rect width="14.625" height="13.5" fill="white" transform="translate(80.0034 3.25)"/>
</clipPath>
<clipPath id="clip5_2182_5336">
<rect width="14.625" height="13.5" fill="white" transform="translate(98.0034 3.25)"/>
</clipPath>
</defs>
</svg>
