<svg width="94" height="94" viewBox="0 0 94 94" fill="none" xmlns="http://www.w3.org/2000/svg">
<g clip-path="url(#clip0_360_20804)">
<rect width="92.955" height="92.955" transform="translate(0.427734 0.985352)" fill="white"/>
<path d="M73.1797 0.985352L73.1797 9.29596L85.0737 9.29596L85.0737 21.2753L93.3889 21.2753L93.3889 0.985352L73.1797 0.985352Z" fill="#001216"/>
<path d="M0.433594 21.2209L8.74888 21.2209L8.74889 9.34674L20.735 9.34674L20.735 1.03613L0.433594 1.03613L0.433594 21.2209Z" fill="#001216"/>
<path d="M73.0664 85.5788L85.0657 85.5788L85.0657 73.6914L93.3809 73.6914L93.3809 93.8894L73.0664 93.8894L73.0664 85.5788Z" fill="#001216"/>
<path d="M8.74302 73.6357L0.427734 73.6357L0.427734 93.939L20.637 93.939L20.637 85.6285L8.74302 85.6285L8.74302 73.6357Z" fill="#001216"/>
<path fill-rule="evenodd" clip-rule="evenodd" d="M40.9903 24.6426L52.6345 24.6426L72.949 59.8313L67.1335 69.8906L26.4912 69.8906L20.6758 59.8313L40.9903 24.6426Z" fill="#001216"/>
</g>
<defs>
<clipPath id="clip0_360_20804">
<rect width="92.955" height="92.955" fill="white" transform="translate(0.427734 0.985352)"/>
</clipPath>
</defs>
</svg>
