<svg width="64" height="65" viewBox="0 0 64 65" fill="none" xmlns="http://www.w3.org/2000/svg">
<rect x="0.727273" y="1.29368" width="62.5455" height="62.5455" rx="11.2727" fill="#0E0148"/>
<rect x="0.727273" y="1.29368" width="62.5455" height="62.5455" rx="11.2727" stroke="white" stroke-width="1.45455"/>
<rect x="11.6367" y="12.2031" width="40.7273" height="40.7273" rx="20.3636" fill="white"/>
<path d="M20.2619 40.4672L23.2394 45.0822C23.6115 45.6777 24.3559 45.8266 24.9514 45.4544C25.1003 45.38 25.2492 45.2311 25.3236 45.0822L32.023 34.3634L27.1101 26.3242L20.2619 37.7874C19.7408 38.6062 19.8152 39.6484 20.2619 40.4672Z" fill="#00A99D"/>
<path d="M43.7101 37.7874L36.8619 26.3242L32.0234 34.3634L38.6484 45.0822C39.0206 45.6777 39.7649 45.8266 40.3604 45.4544C40.5093 45.38 40.6582 45.2311 40.7326 45.0822L43.7101 40.4672C44.2312 39.6484 44.2312 38.6062 43.7101 37.7874Z" fill="#EF445A"/>
<path d="M35.0017 23.1984L33.0663 20.0721C32.6941 19.4766 31.9498 19.3277 31.2798 19.6254C31.1309 19.6999 30.9821 19.8487 30.9076 20.0721L28.9723 23.1984L27.1113 26.3247L32.0242 34.3639L36.9371 26.3992L35.0017 23.1984Z" fill="#01445A"/>
</svg>
