<svg width="64" height="65" viewBox="0 0 64 65" fill="none" xmlns="http://www.w3.org/2000/svg">
<rect x="0.727273" y="1.29368" width="62.5455" height="62.5455" rx="11.2727" fill="#0DAA6C"/>
<rect x="0.727273" y="1.29368" width="62.5455" height="62.5455" rx="11.2727" stroke="white" stroke-width="1.45455"/>
<g clip-path="url(#clip0_360_20644)">
<path d="M32.1344 16.7676C35.4647 16.7599 38.7055 17.8384 41.3654 19.8412L38.6838 22.5141C36.7515 21.2031 34.47 20.5005 32.1344 20.5005C29.7989 20.5005 27.5174 21.2015 25.585 22.5141L22.9004 19.8412C25.5603 17.8368 28.8026 16.7584 32.1344 16.7676Z" fill="white"/>
<path d="M32.1371 43.6637C29.6054 43.6714 27.1401 42.8472 25.1228 41.3174L22.4551 43.9765C25.1953 46.1904 28.6137 47.3982 32.1371 47.3982C35.6605 47.3982 39.0789 46.1904 41.8207 43.9765L39.153 41.3174C37.1357 42.8472 34.6704 43.6714 32.1371 43.6637Z" fill="white"/>
<path d="M20.5149 32.0743C20.5072 29.5508 21.3321 27.0951 22.8628 25.0892L20.2013 22.4316C18.0434 25.083 16.8355 28.3799 16.7722 31.797C16.7088 35.2141 17.7917 38.5542 19.8492 41.2841L22.5353 38.6081C21.2131 36.6854 20.5087 34.4053 20.5165 32.0728L20.5149 32.0743Z" fill="white"/>
<path d="M13.0843 32.0786C13.0719 27.5846 14.6692 23.2355 17.5886 19.8153L14.9333 17.167C11.3867 21.2234 9.4018 26.4091 9.33383 31.7951C9.26587 37.1811 11.121 42.4146 14.5657 46.5573L17.2271 43.9028C14.5332 40.5504 13.0719 36.3769 13.0828 32.0786H13.0843Z" fill="white"/>
<path d="M54.1017 32.0771C54.1079 26.594 52.1199 21.2943 48.5069 17.167L45.8516 19.8153C48.6968 23.1662 50.2895 27.3998 50.3558 31.7936C50.4224 36.1874 48.961 40.4688 46.2192 43.9043L48.8682 46.5742C52.2543 42.5024 54.1032 37.3721 54.094 32.0786H54.1017V32.0771Z" fill="white"/>
</g>
<defs>
<clipPath id="clip0_360_20644">
<rect width="45.3333" height="32" fill="white" transform="translate(9.33398 16.5664)"/>
</clipPath>
</defs>
</svg>
