<svg width="64" height="65" viewBox="0 0 64 65" fill="none" xmlns="http://www.w3.org/2000/svg">
<rect x="0.727273" y="1.29368" width="62.5455" height="62.5455" rx="11.2727" fill="black"/>
<rect x="0.727273" y="1.29368" width="62.5455" height="62.5455" rx="11.2727" stroke="white" stroke-width="1.45455"/>
<g clip-path="url(#clip0_360_20587)">
<path d="M32.486 35.4759C38.9126 35.4759 44.1223 30.2661 44.1223 23.8395C44.1223 17.4129 38.9126 12.2031 32.486 12.2031C26.0594 12.2031 20.8496 17.4129 20.8496 23.8395C20.8496 30.2661 26.0594 35.4759 32.486 35.4759Z" fill="#036C70"/>
<path d="M42.1803 45.1732C48.0714 45.1732 52.847 40.3976 52.847 34.5065C52.847 28.6155 48.0714 23.8398 42.1803 23.8398C36.2893 23.8398 31.5137 28.6155 31.5137 34.5065C31.5137 40.3976 36.2893 45.1732 42.1803 45.1732Z" fill="#1A9BA1"/>
<path d="M33.9377 52.9301C38.4899 52.9301 42.1801 49.2399 42.1801 44.6877C42.1801 40.1356 38.4899 36.4453 33.9377 36.4453C29.3856 36.4453 25.6953 40.1356 25.6953 44.6877C25.6953 49.2399 29.3856 52.9301 33.9377 52.9301Z" fill="#37C6D0"/>
<path opacity="0.1" d="M34.4232 22.7042V43.3976C34.4184 44.1166 33.9826 44.7626 33.3177 45.0363C33.106 45.1259 32.8785 45.172 32.6486 45.1721H25.7056C25.6959 45.0072 25.6959 44.8521 25.6959 44.6873C25.6927 44.5254 25.6991 44.3635 25.7153 44.2024C25.8928 41.1027 27.8023 38.3678 30.6511 37.1333V35.3297C24.3111 34.325 19.986 28.371 20.9906 22.031C20.9976 21.9871 21.0048 21.9432 21.0123 21.8994C21.0605 21.5723 21.1286 21.2485 21.2159 20.9297H32.6487C33.6271 20.9334 34.4194 21.7257 34.4232 22.7042Z" fill="black"/>
<path opacity="0.2" d="M31.6792 21.9014H21.0125C19.9349 28.2299 24.1917 34.2337 30.5202 35.3113C30.7119 35.3439 30.9043 35.3717 31.0973 35.3947C28.0913 36.8201 25.9007 40.8686 25.7145 44.2044C25.6984 44.3655 25.6919 44.5274 25.6951 44.6892C25.6951 44.8541 25.6951 45.0092 25.7048 45.1741C25.7223 45.5 25.7645 45.8242 25.8309 46.1438H31.6781C32.3972 46.139 33.0432 45.7032 33.3169 45.0383C33.4065 44.8266 33.4527 44.5991 33.4527 44.3692V23.6759C33.449 22.6978 32.6573 21.9056 31.6792 21.9014Z" fill="black"/>
<path opacity="0.2" d="M31.6791 21.9014H21.0124C19.9351 28.2305 24.1925 34.2346 30.5216 35.3119C30.6511 35.334 30.7809 35.3538 30.9111 35.3714C28.002 36.8997 25.8977 40.9385 25.7154 44.2044H31.6791C32.656 44.197 33.4462 43.4068 33.4536 42.4299V23.6759C33.4499 22.6974 32.6576 21.9051 31.6791 21.9014Z" fill="black"/>
<path opacity="0.2" d="M30.709 21.9014H21.0121C19.9948 27.8761 23.7386 33.6299 29.6133 35.1203C27.3889 37.6618 26.0245 40.8412 25.7151 44.2044H30.7091C31.6876 44.2007 32.4799 43.4084 32.4836 42.4299V23.6759C32.4831 22.6961 31.6889 21.9019 30.709 21.9014Z" fill="black"/>
<path d="M12.9278 21.9014H30.7063C31.6879 21.9014 32.4837 22.6972 32.4837 23.6788V41.4572C32.4837 42.4389 31.6879 43.2347 30.7063 43.2347H12.9278C11.9462 43.2347 11.1504 42.4389 11.1504 41.4572V23.6788C11.1504 22.6972 11.9462 21.9014 12.9278 21.9014Z" fill="url(#paint0_linear_360_20587)"/>
<path d="M19.0894 32.3486C18.6728 32.0723 18.3249 31.7045 18.0721 31.2732C17.8273 30.8224 17.7052 30.3151 17.7182 29.8022C17.6964 29.1077 17.9307 28.4296 18.3766 27.8967C18.8452 27.3633 19.4508 26.9682 20.1279 26.7544C20.8995 26.5004 21.7078 26.3753 22.5201 26.384C23.5884 26.345 24.6552 26.4943 25.6716 26.8252V29.0555C25.23 28.788 24.7489 28.5916 24.2462 28.4737C23.7007 28.3399 23.1409 28.2729 22.5793 28.2739C21.987 28.2522 21.3985 28.3768 20.8658 28.6366C20.4546 28.814 20.1879 29.2186 20.187 29.6664C20.1854 29.9381 20.2897 30.1997 20.4779 30.3957C20.7002 30.6266 20.9632 30.8147 21.2537 30.9503C21.5769 31.1113 22.0618 31.3253 22.7082 31.5923C22.7794 31.6148 22.8488 31.6427 22.9158 31.6757C23.552 31.9243 24.1658 32.227 24.7504 32.5804C25.1932 32.8534 25.5647 33.2276 25.8346 33.6723C26.1112 34.1763 26.2453 34.7462 26.2224 35.3208C26.254 36.0337 26.0359 36.7354 25.6057 37.3048C25.1769 37.8282 24.6036 38.214 23.9572 38.4141C23.1969 38.6524 22.4034 38.7676 21.6067 38.7554C20.8919 38.7587 20.1781 38.7003 19.4733 38.5809C18.8783 38.4835 18.2975 38.3128 17.7444 38.0727V35.7212C18.2731 36.0989 18.8638 36.3811 19.4898 36.5552C20.1137 36.7496 20.7623 36.8534 21.4156 36.8636C22.0204 36.9019 22.6241 36.7737 23.1611 36.4931C23.5373 36.2808 23.7661 35.8787 23.7565 35.4468C23.759 35.1463 23.6401 34.8575 23.4268 34.6459C23.1615 34.3854 22.8544 34.1714 22.5182 34.0126C22.1303 33.8187 21.5592 33.563 20.8048 33.2456C20.2046 33.0043 19.6299 32.7038 19.0894 32.3486Z" fill="white"/>
</g>
<defs>
<linearGradient id="paint0_linear_360_20587" x1="14.8564" y1="20.5125" x2="28.7777" y2="44.6236" gradientUnits="userSpaceOnUse">
<stop stop-color="#058F92"/>
<stop offset="0.5" stop-color="#038489"/>
<stop offset="1" stop-color="#026D71"/>
</linearGradient>
<clipPath id="clip0_360_20587">
<rect width="41.697" height="40.7273" fill="white" transform="translate(11.1523 12.2031)"/>
</clipPath>
</defs>
</svg>
