<svg width="64" height="65" viewBox="0 0 64 65" fill="none" xmlns="http://www.w3.org/2000/svg">
<rect x="0.727273" y="1.29368" width="62.5455" height="62.5455" rx="11.2727" fill="#05D5A0"/>
<rect x="0.727273" y="1.29368" width="62.5455" height="62.5455" rx="11.2727" stroke="white" stroke-width="1.45455"/>
<path d="M36.0161 48.0832C33.0118 49.2135 29.7343 49.401 26.6206 48.6207C19.3003 46.6301 13.9855 39.9219 13.9855 32.6165C13.9472 30.4245 14.3545 28.2476 15.1825 26.2177C16.0106 24.1878 17.2422 22.3472 18.8027 20.8074C21.8073 17.826 25.8471 16.1198 30.0793 16.0449H30.2335C37.957 16.1295 42.8538 21.9619 42.8936 22.0167C43.215 22.4126 43.6805 22.6647 44.1877 22.7174C44.6949 22.7701 45.2023 22.6192 45.5983 22.2978C45.9942 21.9764 46.2463 21.5109 46.299 21.0037C46.3517 20.4965 46.2008 19.9891 45.8794 19.5931C45.6356 19.2945 39.843 12.3076 30.2783 12.2031C27.6137 12.2109 24.977 12.7459 22.5201 13.7773C20.0632 14.8087 17.8347 16.3162 15.963 18.2128C14.0914 20.1094 12.6136 22.3577 11.6148 24.8281C10.6161 27.2984 10.1161 29.942 10.1437 32.6065C10.1437 41.6188 16.6528 49.9145 25.6253 52.3231C27.1677 52.7323 28.7573 52.9364 30.353 52.9303C32.7303 52.923 35.0881 52.5003 37.32 51.6812C43.232 49.5214 48.9997 43.8383 48.7907 37.2495C47.443 38.2202 46.0351 39.1044 44.5756 39.897C43.436 43.5397 39.8281 46.6948 36.0161 48.0832Z" fill="white"/>
<path d="M50.5277 28.0666C49.2533 29.3851 47.8626 30.586 46.3724 31.6546C43.8046 29.1664 39.7139 27.9621 36.7529 27.9621C34.3344 27.9621 32.4782 28.5991 31.244 29.8482C30.7631 30.3392 30.3868 30.9227 30.1379 31.5634C29.8889 32.2041 29.7726 32.8886 29.7959 33.5755C29.8357 36.1881 31.7118 39.0148 36.8425 39.1292C39.704 39.1989 42.5007 38.2733 44.9491 37.0192C46.1625 36.4002 47.327 35.6898 48.4326 34.8943C50.202 33.651 51.8469 32.2394 53.3444 30.6792C53.6908 30.3051 53.8745 29.8086 53.8549 29.299C53.8353 28.7895 53.614 28.3086 53.2399 27.9621C52.8657 27.6156 52.3692 27.432 51.8597 27.4516C51.3501 27.4712 50.8692 27.6924 50.5227 28.0666H50.5277ZM36.9271 35.2874C35.4342 35.2526 33.6626 34.9192 33.6377 33.5158C33.6204 33.335 33.6421 33.1526 33.7013 32.9809C33.7605 32.8092 33.8559 32.6522 33.9811 32.5205C34.2548 32.2418 34.9764 31.779 36.7529 31.779C38.9465 31.8425 41.0758 32.5333 42.8889 33.7696C41.0522 34.7466 39.0074 35.2672 36.9271 35.2874Z" fill="white"/>
</svg>
