<svg width="64" height="65" viewBox="0 0 64 65" fill="none" xmlns="http://www.w3.org/2000/svg">
<rect x="0.727273" y="1.29368" width="62.5455" height="62.5455" rx="11.2727" fill="white"/>
<rect x="0.727273" y="1.29368" width="62.5455" height="62.5455" rx="11.2727" stroke="#EEEFF1" stroke-width="1.45455"/>
<path d="M35.9178 24.3377H34.8139V14.123H21.0111C19.6369 14.123 18.5254 15.2346 18.5254 16.6072V48.0819C18.5254 49.4546 19.6369 50.5661 21.0096 50.5661H42.5444C43.9171 50.5661 45.0286 49.4546 45.0286 48.0819V24.3377H35.9178ZM35.0903 40.2132H24.3214V38.1421H35.0872V40.2132H35.0903ZM39.2311 35.2433H24.3229V33.1721H39.2311V35.2433ZM39.2311 30.2734H24.3229V28.2037H39.2311V30.2734Z" fill="#2684FD"/>
<path d="M44.8974 24.3271H34.6934V14.123L44.8974 24.3271Z" fill="#0066DA"/>
</svg>
