<svg width="37" height="32" viewBox="0 0 37 32" fill="none" xmlns="http://www.w3.org/2000/svg">
<g clip-path="url(#clip0_2444_5480)">
<path d="M0 0.000335693V29.4735C0 30.8633 1.1354 32 2.52293 32H34.4771C35.8646 32 37 30.8633 37 29.4735V0.000335693H0ZM12.6137 5.05272C12.6137 4.12212 13.3663 3.36837 14.2956 3.36837H22.7047C23.6337 3.36837 24.3867 4.12212 24.3867 5.05272C24.3867 5.98298 23.6337 6.73673 22.7047 6.73673H14.2956C13.3663 6.73673 12.6137 5.98298 12.6137 5.05272Z" fill="#EEEEEE"/>
<mask id="mask0_2444_5480" style="mask-type:alpha" maskUnits="userSpaceOnUse" x="2" y="13" width="33" height="33">
<path d="M2.52246 29.4741C2.52246 20.6375 9.67575 13.474 18.4998 13.474C27.3238 13.474 34.4771 20.6375 34.4771 29.4741C34.4771 38.3107 27.3238 45.4741 18.4998 45.4741C9.67575 45.4741 2.52246 38.3107 2.52246 29.4741Z" fill="#F1F1F1"/>
</mask>
<g mask="url(#mask0_2444_5480)">
<path d="M5.06024 13.4736V33.1093H12.2101L18.5001 22.2H34.4774V13.4736H5.06024ZM5.06024 13.4736V33.1093H12.2101L18.5001 22.2H34.4774V13.4736H5.06024Z" fill="#DB4437"/>
<path d="M2.52246 45.4735H17.7302L24.7897 38.4039V33.1112L12.2097 33.1092L2.52246 16.4711V45.4735ZM2.52246 45.4735H17.7302L24.7897 38.4039V33.1112L12.2097 33.1092L2.52246 16.4711V45.4735Z" fill="#0F9D58"/>
<path d="M18.4994 22.1999L24.7894 33.1092L17.7319 45.4739H34.4766V22.1999H18.4994ZM18.4994 22.1999L24.7894 33.1092L17.7319 45.4739H34.4766V22.1999H18.4994Z" fill="#FFCD40"/>
<path d="M18.4993 22.2001C22.5108 22.2001 25.7626 25.4568 25.7626 29.4737C25.7626 33.4909 22.5108 36.7477 18.4993 36.7477C14.4878 36.7477 11.236 33.4909 11.236 29.4737C11.236 25.4568 14.4878 22.2001 18.4993 22.2001Z" fill="#F1F1F1"/>
<path d="M18.4994 23.6545C21.7086 23.6545 24.3101 26.2597 24.3101 29.4734C24.3101 32.6872 21.7086 35.2924 18.4994 35.2924C15.2903 35.2924 12.6888 32.6872 12.6888 29.4734C12.6888 26.2597 15.2903 23.6545 18.4994 23.6545Z" fill="#4285F4"/>
</g>
<path opacity="0.0500031" fill-rule="evenodd" clip-rule="evenodd" d="M37 0H0V16H37V0ZM14.2953 3.36837C13.366 3.36837 12.6133 4.12212 12.6133 5.05272C12.6133 5.98298 13.366 6.73674 14.2953 6.73674H22.7044C23.6333 6.73674 24.3863 5.98298 24.3863 5.05272C24.3863 4.12212 23.6333 3.36837 22.7044 3.36837H14.2953Z" fill="#090909"/>
<path opacity="0.100006" d="M34.4771 31.7895H2.5226C1.1354 31.7895 0 30.6525 0 29.263V29.4735C0 30.8633 1.1354 32 2.5226 32H34.4771C35.8646 32 37 30.8633 37 29.4735V29.263C37 30.6525 35.8646 31.7895 34.4771 31.7895ZM14.2953 3.36837H22.7044C23.5977 3.36837 24.3276 4.06732 24.38 4.94749C24.382 4.91185 24.3863 4.8779 24.3863 4.84226C24.3863 3.91166 23.6337 3.15791 22.7044 3.15791H14.2953C13.3663 3.15791 12.6133 3.91166 12.6133 4.84226C12.6133 4.8779 12.6157 4.91185 12.62 4.94749C12.6724 4.06732 13.4019 3.36837 14.2953 3.36837Z" fill="#090909"/>
<path opacity="0.0200043" d="M0 15.7896H37V16.0001H0V15.7896Z" fill="#090909"/>
<path d="M0 0.000337601V29.4735C0 30.8633 1.1354 32 2.52293 32H34.4771C35.8646 32 37 30.8633 37 29.4735V0.000337601H0ZM12.6137 5.05272C12.6137 4.12213 13.3663 3.36837 14.2956 3.36837H22.7047C23.6337 3.36837 24.3867 4.12213 24.3867 5.05272C24.3867 5.98298 23.6337 6.73674 22.7047 6.73674H14.2956C13.3663 6.73674 12.6137 5.98298 12.6137 5.05272Z" fill="url(#paint0_radial_2444_5480)"/>
</g>
<defs>
<radialGradient id="paint0_radial_2444_5480" cx="0" cy="0" r="1" gradientUnits="userSpaceOnUse" gradientTransform="translate(-0.104447 -0.138026) scale(47.8467 47.9149)">
<stop stop-color="white" stop-opacity="0.2"/>
<stop offset="1" stop-color="white" stop-opacity="0"/>
</radialGradient>
<clipPath id="clip0_2444_5480">
<rect width="37" height="32" rx="4" fill="white"/>
</clipPath>
</defs>
</svg>
