<svg width="236" height="17" viewBox="0 0 236 17" fill="none" xmlns="http://www.w3.org/2000/svg">
<path d="M53.5763 7.1615C54.4383 7.29939 55.2094 7.5292 55.8899 7.85095L55.899 7.85555C56.5795 8.13133 57.1239 8.545 57.4868 9.09657C57.8951 9.60217 58.0765 10.2916 58.0765 11.119C58.0765 12.1761 57.759 13.0494 57.1239 13.8308C56.8063 14.1985 56.4298 14.5295 55.9943 14.8237C55.2866 15.2971 54.4745 15.5867 53.6398 15.7337C52.6962 15.8992 51.7209 16.0325 50.5414 16.0325C49.3619 16.0325 48.2731 15.9406 47.3204 15.7108C47.1753 15.674 47.0074 15.628 46.835 15.5775C45.3516 15.127 43.9498 14.41 42.7159 13.4585L44.0133 10.7926C45.0567 11.7579 46.1455 12.4473 47.2343 12.907C48.323 13.3206 49.4572 13.5505 50.682 13.5505C51.3625 13.5505 52.043 13.4585 52.6781 13.3206C53.3586 13.1368 53.9029 12.907 54.3112 12.5852C54.7195 12.2635 54.9463 11.8498 54.9463 11.2982C54.9463 10.9765 54.8556 10.7007 54.6288 10.5168C54.402 10.287 54.0844 10.1032 53.7215 9.96528C53.3586 9.82738 52.9503 9.73547 52.4966 9.64354C52.043 9.55161 51.5893 9.50564 51.1357 9.45968C51.0917 9.45523 51.0483 9.45078 51.0052 9.44638L51.0011 9.44595L50.9995 9.4458C50.6 9.40489 50.2371 9.36775 49.9108 9.36775C48.9128 9.22987 47.9601 9.09197 47.1435 8.86215C46.327 8.63234 45.6011 8.31059 45.0114 7.94287C44.4216 7.57517 43.968 7.11553 43.6504 6.60993C43.3328 6.05836 43.1967 5.46083 43.1967 4.77138C43.1967 4.03596 43.3782 3.3465 43.7411 2.74897C44.1041 2.15145 44.6484 1.64584 45.2836 1.27813C45.964 0.86446 46.7352 0.588676 47.5972 0.358858C48.4591 0.12904 49.3664 0.0371094 50.4552 0.0371094C51.5439 0.0371094 52.4966 0.12904 53.4039 0.358858C53.7759 0.455382 54.2659 0.63004 54.7014 0.800105C55.5406 1.12185 57.0241 2.16063 57.0241 2.16063L55.7629 4.67945C55.6495 4.56454 55.4998 4.43584 55.3365 4.30715C54.6288 3.74179 53.8349 3.30054 52.982 3.00637C52.7733 2.93742 52.5737 2.87767 52.4013 2.8409C52.229 2.79494 52.0157 2.75817 51.7935 2.72599C50.9497 2.61108 50.0968 2.61568 49.2485 2.70301C48.8856 2.73978 48.5136 2.78574 48.2686 2.8409C47.6788 2.97879 47.1798 3.20861 46.8169 3.48439C46.454 3.76017 46.3179 4.12789 46.3179 4.54156C46.3179 4.90927 46.454 5.18505 46.6808 5.46083C46.953 5.69065 47.2705 5.92047 47.6788 6.10433C47.9904 6.24461 48.3548 6.33138 48.7517 6.42587C48.8232 6.44291 48.8968 6.46039 48.9704 6.4783C49.0233 6.49118 49.0767 6.50436 49.1305 6.518C49.7203 6.60993 50.31 6.70185 50.9451 6.74782C51.8524 6.83975 52.7144 6.97764 53.5763 7.1615Z" fill="white"/>
<path d="M0 2.81792V0.161209H13.5415V2.81792H0Z" fill="white"/>
<path fill-rule="evenodd" clip-rule="evenodd" d="M113.354 0.22097L106.35 12.5209L108.355 16.0371H122.368L124.373 12.5209L117.369 0.22097H113.354ZM115.79 2.51916L118.508 7.74983L121.225 12.5209L120.794 13.2793H109.925L109.494 12.5209L112.211 7.74983L114.928 2.51916H115.79Z" fill="white"/>
<path d="M0 6.9041V15.8027H2.90338V9.64354H9.00499L10.3659 6.9041H0Z" fill="white"/>
<path d="M33.3434 8.26462C33.3434 9.22987 33.1166 10.1032 32.6629 10.8386C32.2093 11.574 31.5742 12.1715 30.803 12.5852C30.0318 12.9989 29.1245 13.2287 28.1264 13.2287C27.1284 13.2287 26.3118 12.9989 25.5406 12.5852C24.724 12.1715 24.1343 11.574 23.6806 10.8386C23.227 10.1032 23.0002 9.22987 23.0002 8.26462V0.220962H20.0514V8.35655C20.0514 9.82738 20.369 11.1144 21.0495 12.2635C21.7299 13.4126 22.6826 14.2859 23.8621 14.9753C25.087 15.6188 26.4933 15.9406 28.0811 15.9406C29.6688 15.9406 31.1659 15.6188 32.3454 14.9753C33.5703 14.3318 34.4776 13.4126 35.158 12.2635C35.8385 11.1144 36.1561 9.82738 36.1561 8.35655V0.220962H33.3434V8.26462Z" fill="white"/>
<path d="M64.8269 2.83171H78.255V0.220962L64.8269 0.211776V2.83171Z" fill="white"/>
<path d="M78.255 16.0325H64.8269V6.47203H78.255V8.95408H67.6849V13.1828H78.255V16.0325Z" fill="white"/>
<path fill-rule="evenodd" clip-rule="evenodd" d="M99.4405 7.89692C99.0368 7.64871 98.6149 7.46486 98.1703 7.32696C98.8508 7.06957 99.3997 6.72944 99.8034 6.28818C100.348 5.69065 100.62 4.95523 100.62 4.12789C100.62 3.30054 100.393 2.61108 99.9396 2.01355C99.4405 1.41603 98.7601 0.956382 97.8528 0.680599C96.9454 0.358858 95.8567 0.220962 94.4957 0.220962H85.7856V15.8946H95.0401C95.7659 15.8946 96.4918 15.8486 97.263 15.7108C98.0342 15.5729 98.7147 15.343 99.3498 14.9753C99.9849 14.6076 100.484 14.148 100.847 13.5505C101.255 12.9529 101.437 12.1715 101.437 11.2523C101.437 10.4709 101.255 9.78144 100.892 9.22987C100.529 8.6783 100.03 8.21866 99.4405 7.89692ZM88.6436 2.79494H94.5865C95.4484 2.79494 96.1742 2.93282 96.764 3.20861C97.3537 3.48439 97.6713 3.94403 97.6713 4.58752C97.6713 5.00119 97.5806 5.32294 97.3084 5.59873C97.0362 5.87451 96.7186 6.10433 96.265 6.24222C95.8113 6.38011 95.3577 6.47203 94.8133 6.47203H88.6436V2.79494ZM98.0796 12.2635C97.8074 12.5852 97.3991 12.815 96.9001 12.9529C96.4011 13.0908 95.8567 13.1828 95.1762 13.1828H88.6436V8.95408H94.9947C95.5391 8.95408 96.0381 9.00004 96.5825 9.13794C97.1269 9.27583 97.5806 9.50564 97.9435 9.78144C98.3064 10.1032 98.4879 10.5168 98.4879 11.0684C98.4879 11.5281 98.3518 11.9417 98.0796 12.2635Z" fill="white"/>
<path d="M142.674 7.85095C143.354 8.12673 143.898 8.54041 144.261 9.09197H144.266C144.674 9.59758 144.856 10.287 144.856 11.1144C144.856 12.1715 144.538 13.0449 143.903 13.8262C143.268 14.5617 142.406 15.1592 141.272 15.5729C140.138 15.8027 138.822 16.0325 137.325 16.0325C136.146 16.0325 135.057 15.9406 134.104 15.7108C133.106 15.4809 132.199 15.1592 131.382 14.7455C130.625 14.364 129.949 13.8584 129.309 13.3114L130.82 10.8202C131.854 11.7717 132.934 12.4565 134.013 12.9116C135.102 13.3252 136.236 13.5551 137.461 13.5551C138.142 13.5551 138.822 13.4631 139.457 13.3252C140.138 13.1414 140.682 12.9116 141.09 12.5898C141.544 12.2681 141.725 11.8544 141.725 11.3028C141.725 10.9811 141.635 10.7053 141.408 10.5214C141.181 10.2916 140.863 10.1078 140.501 9.96987C140.138 9.832 139.729 9.74006 139.276 9.64813C138.822 9.5562 138.368 9.51024 137.915 9.46427L137.779 9.45043C137.379 9.40952 137.016 9.37236 136.69 9.37236C135.692 9.23446 134.739 9.09657 133.923 8.86676C133.106 8.63693 132.38 8.31518 131.79 7.94748C131.201 7.57976 130.747 7.12013 130.43 6.61452C130.112 6.06296 129.976 5.46543 129.976 4.77597C129.976 4.04055 130.157 3.3511 130.52 2.75357C130.883 2.15604 131.428 1.65044 132.063 1.28272C132.743 0.869053 133.514 0.59327 134.376 0.363451C135.238 0.133633 136.146 0.0417027 137.234 0.0417027C138.323 0.0417027 139.276 0.133633 140.183 0.363451C141.045 0.59327 141.862 0.869053 142.542 1.23677C143.059 1.51255 143.522 1.84349 143.912 2.22958L142.524 4.66107H142.556L142.537 4.67945C142.084 4.21981 141.585 3.8521 141.04 3.53036C140.451 3.20861 139.861 2.97879 139.18 2.8409C138.5 2.65705 137.819 2.61108 137.139 2.61108C136.368 2.61108 135.687 2.70301 135.052 2.8409C134.462 2.97879 133.963 3.20861 133.601 3.48439C133.238 3.76017 133.102 4.12789 133.102 4.54156C133.102 4.90927 133.238 5.18505 133.464 5.46083C133.737 5.69065 134.054 5.92047 134.462 6.10433C134.774 6.24471 135.139 6.33149 135.536 6.42606C135.659 6.45535 135.785 6.48539 135.914 6.518C136.504 6.60993 137.094 6.70185 137.729 6.74782C138.636 6.83975 139.498 6.97764 140.36 7.1615C141.222 7.29939 141.993 7.5292 142.674 7.85095Z" fill="white"/>
<path d="M165.062 0.220962H151.593V2.83171H165.062V0.220962Z" fill="white"/>
<path d="M151.593 15.8027V6.47203H165.062V8.95408H154.56V13.1828H165.062V15.8027H151.593Z" fill="white"/>
<path d="M183.506 6.03711V0.218927H187.358V1.23313H184.736V2.6195H187.102V3.6337H184.736V6.03711H183.506Z" fill="white"/>
<path d="M194.652 3.12802C194.652 3.76249 194.532 4.30226 194.291 4.74734C194.053 5.19241 193.727 5.53237 193.314 5.76722C192.903 6.00018 192.441 6.11665 191.928 6.11665C191.41 6.11665 190.946 5.99923 190.535 5.76438C190.124 5.52953 189.8 5.18957 189.561 4.7445C189.322 4.29942 189.203 3.76059 189.203 3.12802C189.203 2.49355 189.322 1.95378 189.561 1.5087C189.8 1.06362 190.124 0.724609 190.535 0.491655C190.946 0.256806 191.41 0.139382 191.928 0.139382C192.441 0.139382 192.903 0.256806 193.314 0.491655C193.727 0.724609 194.053 1.06362 194.291 1.5087C194.532 1.95378 194.652 2.49355 194.652 3.12802ZM193.405 3.12802C193.405 2.71703 193.343 2.37044 193.22 2.08825C193.099 1.80605 192.928 1.59203 192.706 1.4462C192.484 1.30037 192.225 1.22745 191.928 1.22745C191.63 1.22745 191.371 1.30037 191.149 1.4462C190.928 1.59203 190.755 1.80605 190.632 2.08825C190.511 2.37044 190.45 2.71703 190.45 3.12802C190.45 3.539 190.511 3.88559 190.632 4.16779C190.755 4.44999 190.928 4.664 191.149 4.80984C191.371 4.95567 191.63 5.02859 191.928 5.02859C192.225 5.02859 192.484 4.95567 192.706 4.80984C192.928 4.664 193.099 4.44999 193.22 4.16779C193.343 3.88559 193.405 3.539 193.405 3.12802Z" fill="white"/>
<path d="M196.683 6.03711V0.218927H198.979C199.418 0.218927 199.793 0.297526 200.104 0.454723C200.416 0.610026 200.654 0.83067 200.817 1.11665C200.981 1.40075 201.064 1.73503 201.064 2.1195C201.064 2.50586 200.981 2.83825 200.814 3.11665C200.647 3.39317 200.406 3.60529 200.089 3.75302C199.775 3.90075 199.394 3.97461 198.947 3.97461H197.41V2.98597H198.749C198.983 2.98597 199.178 2.95378 199.334 2.88938C199.489 2.82499 199.605 2.7284 199.68 2.59961C199.758 2.47082 199.797 2.31078 199.797 2.1195C199.797 1.92631 199.758 1.76344 199.68 1.63086C199.605 1.49828 199.488 1.3979 199.331 1.32972C199.176 1.25965 198.98 1.22461 198.743 1.22461H197.913V6.03711H196.683ZM199.825 3.38938L201.271 6.03711H199.913L198.499 3.38938H199.825Z" fill="white"/>
<path d="M203.053 0.218927H204.57L206.173 4.12802H206.241L207.843 0.218927H209.36V6.03711H208.167V2.25018H208.119L206.613 6.0087H205.8L204.295 2.23597H204.246V6.03711H203.053V0.218927Z" fill="white"/>
<path d="M211.493 6.03711V0.218927H215.414V1.23313H212.724V2.6195H215.212V3.6337H212.724V5.0229H215.425V6.03711H211.493Z" fill="white"/>
<path d="M217.512 6.03711V0.218927H219.807C220.247 0.218927 220.622 0.297526 220.932 0.454723C221.245 0.610026 221.483 0.83067 221.645 1.11665C221.81 1.40075 221.893 1.73503 221.893 2.1195C221.893 2.50586 221.809 2.83825 221.643 3.11665C221.476 3.39317 221.234 3.60529 220.918 3.75302C220.604 3.90075 220.223 3.97461 219.776 3.97461H218.239V2.98597H219.577C219.812 2.98597 220.007 2.95378 220.163 2.88938C220.318 2.82499 220.433 2.7284 220.509 2.59961C220.587 2.47082 220.626 2.31078 220.626 2.1195C220.626 1.92631 220.587 1.76344 220.509 1.63086C220.433 1.49828 220.317 1.3979 220.16 1.32972C220.004 1.25965 219.808 1.22461 219.572 1.22461H218.742V6.03711H217.512ZM220.654 3.38938L222.1 6.03711H220.742L219.327 3.38938H220.654Z" fill="white"/>
<path d="M223.882 6.03711V0.218927H225.112V5.0229H227.606V6.03711H223.882Z" fill="white"/>
<path d="M228.458 0.218927H229.836L231.162 2.72461H231.219L232.546 0.218927H233.924L231.802 3.98029V6.03711H230.58V3.98029L228.458 0.218927Z" fill="white"/>
<path d="M188.372 10.2189V16.0371H187.31L184.778 12.3752H184.736V16.0371H183.506V10.2189H184.585L187.097 13.878H187.148V10.2189H188.372Z" fill="white"/>
<path d="M191.739 10.2189V16.0371H190.508V10.2189H191.739Z" fill="white"/>
<path d="M193.871 10.2189H195.388L196.99 14.128H197.058L198.66 10.2189H200.178V16.0371H198.984V12.2502H198.936L197.43 16.0087H196.618L195.112 12.236H195.064V16.0371H193.871V10.2189Z" fill="white"/>
<path d="M202.311 16.0371V10.2189H204.641C205.069 10.2189 205.426 10.2824 205.712 10.4093C205.998 10.5362 206.213 10.7123 206.356 10.9377C206.5 11.1612 206.572 11.4187 206.572 11.7104C206.572 11.9377 206.527 12.1375 206.436 12.3098C206.345 12.4803 206.22 12.6204 206.061 12.7303C205.904 12.8382 205.724 12.9149 205.521 12.9604V13.0172C205.743 13.0267 205.95 13.0892 206.143 13.2047C206.338 13.3203 206.497 13.4822 206.618 13.6905C206.739 13.897 206.8 14.1432 206.8 14.4292C206.8 14.7379 206.723 15.0134 206.57 15.2559C206.418 15.4964 206.194 15.6867 205.896 15.8269C205.599 15.967 205.232 16.0371 204.797 16.0371H202.311ZM203.541 15.0314H204.544C204.887 15.0314 205.137 14.9661 205.294 14.8354C205.451 14.7028 205.53 14.5267 205.53 14.307C205.53 14.146 205.491 14.004 205.413 13.8809C205.336 13.7578 205.225 13.6612 205.081 13.5911C204.939 13.521 204.769 13.486 204.572 13.486H203.541V15.0314ZM203.541 12.6536H204.453C204.622 12.6536 204.771 12.6242 204.902 12.5655C205.034 12.5049 205.139 12.4197 205.214 12.3098C205.292 12.2 205.331 12.0684 205.331 11.915C205.331 11.7047 205.256 11.5352 205.106 11.4064C204.959 11.2776 204.748 11.2132 204.476 11.2132H203.541V12.6536Z" fill="white"/>
<path d="M212.314 10.2189H213.544V13.9973C213.544 14.4216 213.443 14.7928 213.24 15.111C213.039 15.4292 212.758 15.6773 212.396 15.8553C212.034 16.0314 211.613 16.1195 211.132 16.1195C210.649 16.1195 210.227 16.0314 209.865 15.8553C209.503 15.6773 209.222 15.4292 209.021 15.111C208.82 14.7928 208.72 14.4216 208.72 13.9973V10.2189H209.95V13.8922C209.95 14.1138 209.998 14.3108 210.095 14.4831C210.194 14.6555 210.332 14.7909 210.51 14.8894C210.688 14.9879 210.895 15.0371 211.132 15.0371C211.371 15.0371 211.578 14.9879 211.754 14.8894C211.932 14.7909 212.069 14.6555 212.166 14.4831C212.265 14.3108 212.314 14.1138 212.314 13.8922V10.2189Z" fill="white"/>
<path d="M218.832 11.8922C218.81 11.6631 218.712 11.485 218.54 11.3581C218.367 11.2312 218.133 11.1678 217.838 11.1678C217.637 11.1678 217.468 11.1962 217.329 11.253C217.191 11.3079 217.085 11.3846 217.011 11.4831C216.939 11.5816 216.903 11.6934 216.903 11.8184C216.899 11.9225 216.921 12.0134 216.969 12.0911C217.018 12.1687 217.085 12.236 217.17 12.2928C217.256 12.3477 217.354 12.396 217.466 12.4377C217.577 12.4775 217.697 12.5115 217.824 12.54L218.346 12.665C218.6 12.7218 218.833 12.7975 219.045 12.8922C219.257 12.9869 219.441 13.1034 219.596 13.2417C219.752 13.3799 219.872 13.5428 219.957 13.7303C220.044 13.9178 220.089 14.1328 220.091 14.3752C220.089 14.7312 219.998 15.0399 219.818 15.3013C219.64 15.5608 219.382 15.7625 219.045 15.9064C218.71 16.0485 218.306 16.1195 217.832 16.1195C217.363 16.1195 216.953 16.0475 216.605 15.9036C216.258 15.7596 215.988 15.5466 215.792 15.2644C215.599 14.9803 215.498 14.629 215.488 14.2104H216.679C216.692 14.4055 216.748 14.5684 216.846 14.699C216.947 14.8278 217.08 14.9254 217.247 14.9917C217.416 15.056 217.606 15.0882 217.818 15.0882C218.026 15.0882 218.207 15.0579 218.361 14.9973C218.516 14.9367 218.636 14.8524 218.721 14.7445C218.807 14.6365 218.849 14.5125 218.849 14.3723C218.849 14.2417 218.81 14.1318 218.733 14.0428C218.657 13.9538 218.545 13.878 218.398 13.8155C218.252 13.753 218.073 13.6962 217.861 13.6451L217.227 13.486C216.737 13.3667 216.349 13.1801 216.065 12.9263C215.781 12.6725 215.64 12.3307 215.642 11.9007C215.64 11.5485 215.734 11.2407 215.923 10.9775C216.114 10.7142 216.377 10.5087 216.71 10.361C217.043 10.2132 217.422 10.1394 217.846 10.1394C218.278 10.1394 218.655 10.2132 218.977 10.361C219.301 10.5087 219.553 10.7142 219.733 10.9775C219.913 11.2407 220.006 11.5456 220.011 11.8922H218.832Z" fill="white"/>
<path d="M175 0.0371094V16.0371H174V0.0371094L175 0.0371094Z" fill="white"/>
</svg>
