<svg width="64" height="65" viewBox="0 0 64 65" fill="none" xmlns="http://www.w3.org/2000/svg">
<rect x="0.727273" y="1.29368" width="62.5455" height="62.5455" rx="11.2727" fill="white"/>
<rect x="0.727273" y="1.29368" width="62.5455" height="62.5455" rx="11.2727" stroke="#EEEFF1" stroke-width="1.45455"/>
<g clip-path="url(#clip0_360_20546)">
<mask id="mask0_360_20546" style="mask-type:luminance" maskUnits="userSpaceOnUse" x="10" y="11" width="44" height="43">
<path d="M53.3951 11.5605H10.9277V53.2557H53.3951V11.5605Z" fill="white"/>
</mask>
<g mask="url(#mask0_360_20546)">
<path d="M48.8504 20.5463L52.0287 16.0103C52.3732 15.5213 52.5372 14.9585 52.5372 14.4038C52.5372 13.5204 52.123 12.6535 51.348 12.107C50.0848 11.2195 48.3378 11.5236 47.452 12.7932L44.9789 16.3267C41.3782 13.3478 36.7686 11.5605 31.7366 11.5605C20.2454 11.5605 10.9277 20.8955 10.9277 32.4081C10.9277 43.9207 20.2454 53.2557 31.7366 53.2557C43.2278 53.2557 52.5454 43.9207 52.5454 32.4081C52.5454 27.9995 51.1798 23.9154 48.8504 20.5463Z" fill="#FF7900"/>
<path d="M24.2072 28.552C23.1164 27.455 21.3447 27.455 20.2538 28.5478C19.7043 29.0943 19.4336 29.8133 19.4336 30.5324C19.4336 31.2473 19.7043 31.9621 20.2497 32.5086L29.7683 42.0696C30.2933 42.5996 31.0068 42.8913 31.7491 42.8913C31.8312 42.8913 31.9091 42.8913 31.9911 42.879C32.8154 42.8091 33.5659 42.3737 34.0375 41.6957L48.8506 20.5441C47.7556 18.9622 46.4515 17.5406 44.9751 16.3203L31.3718 35.7504L24.2072 28.552Z" fill="white"/>
</g>
</g>
<defs>
<clipPath id="clip0_360_20546">
<rect width="42.7931" height="42" fill="white" transform="translate(10.6035 11.5664)"/>
</clipPath>
</defs>
</svg>
