<svg width="64" height="65" viewBox="0 0 64 65" fill="none" xmlns="http://www.w3.org/2000/svg">
<rect x="0.727273" y="1.29368" width="62.5455" height="62.5455" rx="11.2727" fill="black"/>
<rect x="0.727273" y="1.29368" width="62.5455" height="62.5455" rx="11.2727" stroke="white" stroke-width="1.45455"/>
<path fill-rule="evenodd" clip-rule="evenodd" d="M31.9037 12.2041C29.0522 12.2041 26.1295 12.8216 23.3969 14.1277C16.007 17.5712 11.6585 24.8619 11.6348 32.485V32.6275C11.6348 35.4773 12.2526 38.3983 13.5595 41.1531C18.3119 51.3411 30.4304 55.7582 40.6005 51.0086C50.7944 46.2827 55.1903 34.1712 50.4617 23.9594C47.0162 16.5975 39.6976 12.2516 32.07 12.2041H31.9037Z" fill="url(#paint0_linear_360_20649)"/>
<path opacity="0.3" fill-rule="evenodd" clip-rule="evenodd" d="M37.725 34.6455C33.8755 45.2134 28.1964 52.8128 25.0123 51.6729C21.8282 50.533 22.3985 41.0338 26.2479 30.4421C30.0974 19.8979 35.7765 12.2747 38.9606 13.4146C42.1447 14.5783 41.5744 24.0776 37.725 34.6455Z" fill="#676FFF"/>
<path opacity="0.4" fill-rule="evenodd" clip-rule="evenodd" d="M38.96 13.4385C42.1203 14.5784 41.5738 24.0777 37.7243 34.6693C33.8749 45.261 28.1958 52.8367 25.0117 51.6968C35.5858 55.544 47.2529 50.1056 51.1023 39.514C54.9517 28.9698 49.5103 17.2619 38.96 13.4385Z" fill="#6691FF"/>
<path opacity="0.5" fill-rule="evenodd" clip-rule="evenodd" d="M38.96 13.4385C42.1203 14.5784 41.5738 24.0777 37.7243 34.6693C33.8749 45.261 28.1958 52.8367 25.0117 51.6968C35.5858 55.544 47.2529 50.1056 51.1023 39.514C54.9517 28.9698 49.5103 17.2619 38.96 13.4385Z" fill="#5962FF"/>
<defs>
<linearGradient id="paint0_linear_360_20649" x1="25.0364" y1="51.6622" x2="38.9332" y2="13.4278" gradientUnits="userSpaceOnUse">
<stop stop-color="#81D674"/>
<stop offset="1" stop-color="#43ADFF"/>
</linearGradient>
</defs>
</svg>
