<svg width="64" height="65" viewBox="0 0 64 65" fill="none" xmlns="http://www.w3.org/2000/svg">
<rect x="0.727273" y="1.29368" width="62.5455" height="62.5455" rx="11.2727" fill="#C8DAFC"/>
<rect x="0.727273" y="1.29368" width="62.5455" height="62.5455" rx="11.2727" stroke="white" stroke-width="1.45455"/>
<g clip-path="url(#clip0_360_20535)">
<path d="M55.1232 32.5664C55.1232 41.4029 48.0411 48.5664 39.3048 48.5664C30.5684 48.5664 23.4863 41.4029 23.4863 32.5664C23.4863 23.7298 30.5684 16.5664 39.3048 16.5664C48.0411 16.5664 55.1232 23.7298 55.1232 32.5664Z" fill="url(#paint0_linear_360_20535)"/>
<path fill-rule="evenodd" clip-rule="evenodd" d="M23.4838 32.5683C23.4838 26.5761 26.7405 21.3532 31.5613 18.6118C29.2732 17.3105 26.6325 16.5684 23.8205 16.5684C15.0842 16.5684 8.00209 23.7318 8.00209 32.5683C8.00209 40.3004 13.4242 46.7514 20.6325 48.2432C21.6623 48.4564 22.7285 48.5684 23.8205 48.5684C24.5015 48.5684 25.1724 48.5248 25.8308 48.4404C27.8908 48.176 29.8272 47.5111 31.5613 46.5248C36.382 43.7834 39.6388 38.5605 39.6388 32.5683H23.4838Z" fill="#54ABFB" fill-opacity="0.6"/>
<path fill-rule="evenodd" clip-rule="evenodd" d="M39.6414 32.5663C39.6414 38.5587 36.3846 43.7815 31.5638 46.523C33.8521 47.8241 36.4927 48.5663 39.3047 48.5663C48.0409 48.5663 55.1231 41.403 55.1231 32.5663C55.1231 26.2151 51.4646 20.7282 46.1626 18.1442C44.0879 17.133 41.7617 16.5664 39.3047 16.5664C36.9006 16.5664 34.6218 17.1089 32.5814 18.0794C32.2351 18.244 31.8958 18.4211 31.5638 18.6098C31.5636 18.6098 31.5638 18.6098 31.5638 18.6098C26.743 21.3512 23.4863 26.5741 23.4863 32.5663H39.6414Z" fill="url(#paint1_linear_360_20535)"/>
</g>
<defs>
<linearGradient id="paint0_linear_360_20535" x1="39.3048" y1="32.5664" x2="39.3048" y2="48.5664" gradientUnits="userSpaceOnUse">
<stop stop-color="#4058FF"/>
<stop offset="1" stop-color="#4058FF" stop-opacity="0"/>
</linearGradient>
<linearGradient id="paint1_linear_360_20535" x1="48.0553" y1="26.7792" x2="23.243" y2="48.2855" gradientUnits="userSpaceOnUse">
<stop stop-color="#4058FF"/>
<stop offset="1" stop-color="#0B20B3"/>
</linearGradient>
<clipPath id="clip0_360_20535">
<rect width="48" height="32" fill="white" transform="translate(8 16.5664)"/>
</clipPath>
</defs>
</svg>
