<svg width="64" height="65" viewBox="0 0 64 65" fill="none" xmlns="http://www.w3.org/2000/svg">
<rect x="0.727273" y="1.29368" width="62.5455" height="62.5455" rx="11.2727" fill="white"/>
<rect x="0.727273" y="1.29368" width="62.5455" height="62.5455" rx="11.2727" stroke="#EEEFF1" stroke-width="1.45455"/>
<g clip-path="url(#clip0_360_20578)">
<path d="M18.6021 50.0051L14.2997 44.4543C13.3904 43.2923 12.9256 42.0292 12.9337 40.5102L12.9571 17.3263C12.9571 17.0365 12.9788 16.7425 13.0296 16.4583C13.2347 15.3359 13.9441 14.6359 15.0886 14.5306L20.7538 14.0889L29.7799 13.4232L38.4116 12.7848C39.9361 12.6644 41.2524 13.0855 42.4924 13.9877C45.034 15.8374 47.6232 17.6217 50.2004 19.4196C50.8402 19.8665 51.1164 20.4258 51.115 21.2255L51.1027 47.7781V48.1281C51.0712 49.7482 50.2907 50.6218 48.6745 50.7516C46.8591 50.8979 45.0396 50.9924 43.221 51.103L32.2679 51.7645L22.5352 52.3444C21.0985 52.44 19.9677 51.9916 19.1788 50.7572C19.0161 50.5 18.8085 50.2704 18.6021 50.0051ZM20.8441 33.9084V45.6288L20.8469 47.8149C20.8658 48.7952 21.3459 49.2834 22.3259 49.3394C22.5719 49.3531 22.8208 49.3447 23.0682 49.3296L31.2726 48.8459L46.9396 47.9503C47.9161 47.8957 48.3672 47.4677 48.4586 46.5C48.4764 46.326 48.4708 46.15 48.4708 45.975L48.4722 23.4087C48.4722 23.2775 48.4764 23.1462 48.4684 23.015C48.4096 22.1169 48.0239 21.7505 47.1314 21.7981L39.0569 22.2632C35.2749 22.4832 31.493 22.7047 27.7111 22.9275L22.0389 23.268C21.3158 23.3142 20.9889 23.6261 20.8798 24.3331C20.8539 24.5205 20.8424 24.7097 20.8455 24.899L20.8441 33.9084ZM40.8534 15.4545C40.1685 15.0828 39.4248 14.9596 38.659 15.002C37.482 15.0664 36.305 15.1633 35.1276 15.2484L18.3462 16.4677C17.8391 16.5045 17.3292 16.5412 16.8287 16.6319C16.6607 16.662 16.4486 16.8314 16.3968 16.9847C16.3583 17.0925 16.528 17.3102 16.6523 17.4292C16.8822 17.649 17.1472 17.8334 17.3978 18.0318C17.9924 18.5008 18.6252 18.9285 19.1708 19.4469C20.2057 20.4296 21.41 20.6568 22.7896 20.557L33.6514 19.8759L45.3444 19.1746C45.4511 19.1693 45.5579 19.1364 45.7927 19.0927C45.5782 18.8697 45.4536 18.6989 45.2912 18.5785C44.7184 18.1555 44.14 17.7399 43.5563 17.3319C42.6596 16.7 41.7586 16.0742 40.8534 15.4545Z" fill="black"/>
<path d="M20.8438 33.8656L20.8452 24.9C20.8452 24.711 20.8508 24.5199 20.8795 24.334C20.9887 23.627 21.3156 23.3156 22.0386 23.269L27.7108 22.9285L39.0567 22.2642L47.1308 21.799C48.0236 21.7515 48.4093 22.1189 48.4678 23.016C48.4762 23.1472 48.472 23.2785 48.472 23.4097L48.4706 45.9759L48.4583 46.5009C48.367 47.4686 47.9158 47.8967 46.9394 47.9513L31.2723 48.8469L23.0679 49.3306L22.326 49.3404C21.3457 49.2844 20.8655 48.7962 20.8466 47.8172L20.8438 45.6298V33.8656ZM36.8612 33.8887L32.3576 27.0272C32.2005 26.7878 32.0461 26.7087 31.7563 26.7402L29.8367 26.8697L26.3053 27.1283C25.4373 27.2078 24.9124 28.024 25.1528 28.8702L27.0231 29.0302V44.1823L25.7492 44.5417C25.1843 44.7083 24.9425 45.1843 25.1325 45.7926L29.4401 45.5451L31.1369 45.4058C31.8683 45.2854 32.2621 44.8371 32.3604 44.1056L30.005 43.5684V32.1717L30.18 32.4167L35.5936 40.8696C36.3893 42.1041 37.2065 43.3245 38.0449 44.5305C38.6423 45.388 39.5228 45.6505 40.5126 45.437C41.1321 45.3047 41.7267 45.053 42.3336 44.8574C42.6496 44.7548 42.7574 44.5662 42.756 44.212L42.7455 28.6375C42.7455 27.7272 42.7455 27.7272 43.646 27.5455C44.5567 27.3621 44.7849 26.9985 44.577 26.0252L39.1347 26.3559C38.5425 26.3983 38.0942 26.8931 38.0043 27.4689C37.9602 27.7464 38.0176 27.8994 38.3497 27.9186L39.9974 28.1006V38.6629C38.9538 37.0708 37.9084 35.4799 36.8612 33.8901V33.8887ZM40.8829 15.4705C41.7763 16.0875 42.6671 16.7082 43.5554 17.3325C44.1392 17.7406 44.7176 18.1563 45.2906 18.5795C45.453 18.6999 45.5776 18.8707 45.7921 19.0936L45.3438 19.1755L33.6508 19.8769L22.789 20.558C21.4094 20.6577 20.2051 20.4306 19.1702 19.4478C18.6245 18.9298 17.9918 18.5018 17.3968 18.0328C17.1466 17.8344 16.8816 17.6499 16.6517 17.4298C16.5274 17.3108 16.3577 17.0938 16.3962 16.9853C16.448 16.8324 16.6615 16.663 16.8281 16.6329C17.3285 16.5426 17.8385 16.5055 18.3456 16.4687L35.1274 15.2494L38.6587 15.003C39.4241 14.961 40.1679 15.0835 40.8829 15.4705Z" fill="white"/>
<path d="M36.8818 33.9158L39.9991 38.6641V28.1015L38.3518 27.9195C38.0193 27.9006 37.9619 27.7476 38.0056 27.4701C38.0959 26.8943 38.5446 26.3995 39.1361 26.3571L44.5787 26.0264C44.7866 26.9993 44.5584 27.3633 43.6477 27.5464C42.7469 27.727 42.7469 27.727 42.7469 28.6387L42.7577 44.2132C42.7591 44.5674 42.6513 44.756 42.3353 44.8586L40.5143 45.4382C39.5246 45.6503 38.644 45.3892 38.0469 44.5317C37.209 43.3255 36.3917 42.105 35.5956 40.8708L30.1814 32.4175C30.1432 32.3573 30.0995 32.3013 30.0064 32.1729V43.5696L32.3621 44.1068C32.2638 44.8383 31.87 45.2863 31.1386 45.407C30.5807 45.4984 30.0081 45.512 29.4419 45.5463L25.1342 45.7938C24.9442 45.1855 25.186 44.7095 25.7509 44.5429L27.0249 44.1835V29.0314L25.1545 28.8714C24.9141 28.0252 25.4391 27.209 26.307 27.1295C27.4816 27.02 28.6614 26.9531 29.8384 26.8712C30.4782 26.8275 31.1207 26.811 31.7581 26.7414C32.0478 26.7099 32.2025 26.789 32.3593 27.0284L36.8818 33.9158Z" fill="black"/>
</g>
<defs>
<clipPath id="clip0_360_20578">
<rect width="38.6905" height="40.7273" fill="white" transform="translate(12.6543 12.2031)"/>
</clipPath>
</defs>
</svg>
